<?xml version="1.0" encoding="UTF-8"?>
<svg width="86px" height="97px" viewBox="0 0 86 97" version="1.1" xmlns="http://www.w3.org/2000/svg" xmlns:xlink="http://www.w3.org/1999/xlink">
    <!-- Generator: Sketch 49.1 (51147) - http://www.bohemiancoding.com/sketch -->
    <title>logo</title>
    <desc>Created with Sketch.</desc>
    <defs></defs>
    <g id="Page-1" stroke="none" stroke-width="1" fill="none" fill-rule="evenodd">
        <g id="logo" transform="translate(-5.000000, 0.000000)">
            <rect id="Rectangle" x="0" y="0" width="97" height="97"></rect>
            <path d="M43.264,0.298 L48.923,0.298 C50.997,0.298 52.689,1.99 52.689,4.063 C52.689,21.197 52.688,38.333 52.688,55.468 C52.688,58.002 50.582,60.11 48.046,60.11 C45.512,60.11 43.405,58.002 43.405,55.468 L43.405,9.816 C43.405,9.765 43.363,9.722 43.311,9.722 L15.226,9.722 C15.174,9.722 15.132,9.765 15.132,9.816 L15.132,55.466 C15.132,98.405 80.96,98.404 80.96,55.466 L80.96,9.816 C80.96,9.765 80.918,9.722 80.867,9.722 L71.63,9.722 C71.579,9.722 71.537,9.764 71.537,9.815 C71.537,25.033 71.537,40.25 71.537,55.466 C71.537,86.478 24.557,86.478 24.557,55.466 L24.557,19.24 C24.557,19.189 24.599,19.146 24.65,19.146 L33.887,19.146 C33.938,19.146 33.981,19.189 33.981,19.24 L33.981,55.468 C33.981,74.036 62.113,74.036 62.113,55.468 C62.113,38.333 62.113,21.198 62.113,4.063 C62.113,1.99 63.804,0.298 65.878,0.298 L86.619,0.298 C88.693,0.298 90.385,1.99 90.385,4.063 L90.385,55.466 C90.385,110.703 5.708,110.704 5.708,55.466 L5.708,4.063 C5.708,1.99 7.399,0.298 9.474,0.298 L43.264,0.298" id="Fill-2" fill="#008FC4" fill-rule="nonzero"></path>
        </g>
    </g>
</svg>